<svg width="62" height="62" viewBox="0 0 62 62" fill="none" xmlns="http://www.w3.org/2000/svg">
<path d="M9.57143 1H52.4286C57.1771 1 61 4.82286 61 9.57143V52.4286C61 57.1771 57.1771 61 52.4286 61H9.57143C4.82286 61 1 57.1771 1 52.4286V9.57143C1 4.82286 4.82286 1 9.57143 1Z" stroke="white" stroke-linecap="round" stroke-linejoin="round"/>
<path d="M13.8555 13.8569H18.1412" stroke="white" stroke-linecap="round" stroke-linejoin="round"/>
<path d="M22.4252 18.1422C21.2886 18.1422 20.1985 17.6907 19.3948 16.887C18.591 16.0832 18.1395 14.9932 18.1395 13.8565C18.1395 12.7199 18.591 11.6298 19.3948 10.8261C20.1985 10.0223 21.2886 9.5708 22.4252 9.5708C22.988 9.5708 23.5453 9.68165 24.0653 9.89703C24.5853 10.1124 25.0577 10.4281 25.4557 10.8261C25.8536 11.224 26.1693 11.6965 26.3847 12.2164C26.6001 12.7364 26.7109 13.2937 26.7109 13.8565C26.7109 14.4193 26.6001 14.9766 26.3847 15.4966C26.1693 16.0166 25.8536 16.489 25.4557 16.887C25.0577 17.2849 24.5853 17.6006 24.0653 17.816C23.5453 18.0314 22.988 18.1422 22.4252 18.1422Z" stroke="white" stroke-linecap="round" stroke-linejoin="round"/>
<path d="M26.7109 13.857L48.1395 13.8569" stroke="white" stroke-linecap="round" stroke-linejoin="round"/>
<path d="M48.1412 31H43.8555" stroke="white" stroke-linecap="round" stroke-linejoin="round"/>
<path d="M39.5748 35.2853C40.7114 35.2853 41.8015 34.8338 42.6052 34.03C43.409 33.2263 43.8605 32.1362 43.8605 30.9996C43.8605 29.8629 43.409 28.7729 42.6052 27.9691C41.8015 27.1654 40.7114 26.7139 39.5748 26.7139C38.4381 26.7139 37.348 27.1654 36.5443 27.9691C35.7406 28.7729 35.2891 29.8629 35.2891 30.9996C35.2891 32.1362 35.7406 33.2263 36.5443 34.03C37.348 34.8338 38.4381 35.2853 39.5748 35.2853Z" stroke="white" stroke-linecap="round" stroke-linejoin="round"/>
<path d="M35.284 31.0001L13.8555 31" stroke="white" stroke-linecap="round" stroke-linejoin="round"/>
<path d="M13.8555 48.1431H18.1412" stroke="white" stroke-linecap="round" stroke-linejoin="round"/>
<path d="M22.4252 52.4284C21.2886 52.4284 20.1985 51.9768 19.3948 51.1731C18.591 50.3694 18.1395 49.2793 18.1395 48.1426C18.1395 47.006 18.591 45.9159 19.3948 45.1122C20.1985 44.3085 21.2886 43.8569 22.4252 43.8569C22.988 43.8569 23.5453 43.9678 24.0653 44.1832C24.5853 44.3985 25.0577 44.7142 25.4557 45.1122C25.8536 45.5102 26.1693 45.9826 26.3847 46.5026C26.6001 47.0225 26.7109 47.5798 26.7109 48.1426C26.7109 48.7055 26.6001 49.2628 26.3847 49.7827C26.1693 50.3027 25.8536 50.7751 25.4557 51.1731C25.0577 51.5711 24.5853 51.8868 24.0653 52.1021C23.5453 52.3175 22.988 52.4284 22.4252 52.4284Z" stroke="white" stroke-linecap="round" stroke-linejoin="round"/>
<path d="M26.7109 48.1431L48.1395 48.1431" stroke="white" stroke-linecap="round" stroke-linejoin="round"/>
</svg>
