<svg width="55" height="43" viewBox="0 0 55 43" fill="none" xmlns="http://www.w3.org/2000/svg">
<g clip-path="url(#clip0_233_3871)">
<path d="M45.375 0H9.625C4.30926 0 0 3.36906 0 7.525V35.475C0 39.6309 4.30926 43 9.625 43H45.375C50.6907 43 55 39.6309 55 35.475V7.525C55 3.36906 50.6907 0 45.375 0Z" fill="#007FB5"/>
<path d="M15.4867 15.8159H7.72656V37.7997H15.4867V15.8159Z" fill="white"/>
<path d="M41.4211 15.8157C35.6977 14.1092 31.5555 16.9982 29.7852 18.6107V15.8157H22.0508V37.7995H29.7852V26.2029C29.7411 24.7331 30.4281 23.3072 31.7016 22.2254C32.0651 21.8909 32.5129 21.6186 33.0172 21.4255C33.5214 21.2325 34.0711 21.1228 34.632 21.1034C35.2593 21.094 35.8826 21.1838 36.4645 21.3673C37.0463 21.5509 37.5747 21.8245 38.018 22.1717C38.9792 22.957 39.5043 24.0076 39.4789 25.0943V37.7995H48.2102V24.1873C48.2102 24.1873 49.1813 18.0867 41.4211 15.8157Z" fill="white"/>
<path d="M11.6008 12.7789C14.2776 12.7789 16.4477 11.0824 16.4477 8.98957C16.4477 6.89676 14.2776 5.2002 11.6008 5.2002C8.92393 5.2002 6.75391 6.89676 6.75391 8.98957C6.75391 11.0824 8.92393 12.7789 11.6008 12.7789Z" fill="white"/>
</g>
<defs>
<clipPath id="clip0_233_3871">
<rect width="55" height="43" fill="white"/>
</clipPath>
</defs>
</svg>
