<svg width="55" height="42" viewBox="0 0 55 42" fill="none" xmlns="http://www.w3.org/2000/svg">
<g clip-path="url(#clip0_233_3878)">
<path d="M27.5 42C42.6878 42 55 32.598 55 21C55 9.40202 42.6878 0 27.5 0C12.3122 0 0 9.40202 0 21C0 32.598 12.3122 42 27.5 42Z" fill="url(#paint0_linear_233_3878)"/>
<path d="M40.8842 12.0834L35.975 30.9916C35.975 30.9916 35.2875 32.3041 33.3969 31.6725L22.0639 25.0361L17.9389 23.5186L10.9994 21.7385C10.9994 21.7385 9.93595 21.4514 9.82853 20.8197C9.7211 20.1881 11.0317 19.8518 11.0317 19.8518L38.6176 11.5912C38.6176 11.583 40.8842 10.8201 40.8842 12.0834Z" fill="white"/>
<path d="M21.1836 30.7784C21.1836 30.7784 20.8506 30.7538 20.4424 29.7612C20.0342 28.7687 17.9395 23.5187 17.9395 23.5187L34.6006 15.4386C34.6006 15.4386 35.5674 14.9956 35.5244 15.4386C35.5244 15.4386 35.6963 15.5206 35.1807 15.8815C34.665 16.2507 22.0967 24.8804 22.0967 24.8804" fill="#D2E4F0"/>
<path d="M26.4033 27.5789L21.9238 30.7043C21.9238 30.7043 21.5693 30.9094 21.1934 30.7781L22.0527 24.9785" fill="#B5CFE4"/>
</g>
<defs>
<linearGradient id="paint0_linear_233_3878" x1="27.5" y1="0" x2="27.5" y2="41.8468" gradientUnits="userSpaceOnUse">
<stop stop-color="#41BCE7"/>
<stop offset="1" stop-color="#22A6DC"/>
</linearGradient>
<clipPath id="clip0_233_3878">
<rect width="55" height="42" fill="white"/>
</clipPath>
</defs>
</svg>
